<svg xmlns="http://www.w3.org/2000/svg" xmlns:xlink="http://www.w3.org/1999/xlink" width="836.011" height="1086.062" viewBox="0 0 836.011 1086.062"><defs><clipPath id="a"><rect width="836.011" height="1086.062" transform="translate(799.66 481.296)" fill="none"/></clipPath><clipPath id="b"><rect width="208.764" height="141.382" fill="none"/></clipPath><clipPath id="c"><rect width="208.754" height="141.382" fill="none"/></clipPath><clipPath id="d"><rect width="188.743" height="47.54" fill="none"/></clipPath><clipPath id="g"><rect width="208.754" height="141.385" fill="none"/></clipPath></defs><g transform="translate(-799.66 -481.296)" clip-path="url(#a)"><path d="M1199.732,779.7,1129.211,913.36c-4.475,8.518-14.516,13.992-25.574,13.992h-37.492a32.843,32.843,0,0,1-9.362-1.351,32.861,32.861,0,0,1-9.381,1.351h-37.471c-11.076,0-21.1-5.474-25.595-13.992L913.836,779.7c-8.617-15.6,4.924-33.444,25.378-33.444H1047.4a32.857,32.857,0,0,1,9.381,1.351,32.839,32.839,0,0,1,9.362-1.351h108.188c20.459,0,34.013,17.846,25.4,33.444" transform="translate(179.347 426.047)" fill="#e3bb94"/><path d="M1054.26,710.018c0,51.113,2.222,92.551,30.08,92.551s56.916-77.532,56.916-128.645-29.06-56.457-56.916-56.457-30.08,41.438-30.08,92.551" transform="translate(409.385 218.957)" fill="#e3bb94"/><path d="M1085.766,806.307c-29.957,0-32.393-42.961-32.393-94.864s2.436-94.862,32.393-94.862c30.761,0,59.229,7.12,59.229,58.77,0,49.259-28.687,130.956-59.229,130.956m0-185.1c-25.678,0-27.767,40.867-27.767,90.235s2.089,90.238,27.767,90.238c25.84,0,54.6-75.3,54.6-126.329,0-49.961-28.184-54.144-54.6-54.144" transform="translate(407.959 217.532)" fill="#e3bb94"/><path d="M922.771,710.018c0,51.113-2.222,92.551-30.078,92.551s-56.918-77.532-56.918-128.645,29.06-56.457,56.918-56.457,30.078,41.438,30.078,92.551" transform="translate(58.071 218.957)" fill="#e3bb94"/><path d="M894.119,806.307c-30.542,0-59.232-81.7-59.232-130.956,0-51.651,28.468-58.77,59.232-58.77,29.955,0,32.393,42.961,32.393,94.862s-2.438,94.864-32.393,94.864m0-185.1c-26.419,0-54.6,4.183-54.6,54.144,0,51.027,28.763,126.329,54.6,126.329,25.675,0,27.764-40.867,27.764-90.238s-2.089-90.235-27.764-90.235" transform="translate(56.644 217.532)" fill="#e3bb94"/><path d="M1425.7,642.967v395.316a88.726,88.726,0,0,1-88.621,88.619h-61.159c-5.563,3.315-49.82,28.33-115.329,28.33q-4.049,0-8.218-.133c-20.188-.647-108.822-26.158-115.84-28.2H941.747a88.711,88.711,0,0,1-88.605-88.619V642.967a88.71,88.71,0,0,1,88.605-88.618h395.329a88.725,88.725,0,0,1,88.621,88.618" transform="translate(85.997 117.466)" fill="#e3bb94"/><path d="M1451.824,726.877,1441,855.058l-8.054,95.188-62.562-215.18-178.019-31.65L917.58,751.543s-52.566,228.318-52.566,236.925c0,8.656-17.818-148.08-17.818-148.08l6.155-139.426,116.38-83.9-5.32-33.317,64.182,33.317V539.323l85.147,62.935L1089.029,481.3l108.608,130.82L1148.955,498.6l73.346,104.86-38.178-104.769c2.869,3.7,93.754,122.167,97.41,126.979l-28.366-91.3,71.585,76.494,64.141,19.758Z" transform="translate(76.436 0)" fill="#eaeaea"/><path d="M965.049,721.588h16.057l-.316,37.445-11.363-29.785-23.354-15.783Z" transform="translate(235.426 373.316)" fill="#d4a87f"/><path d="M957.13,694.148v17.784H942.522Z" transform="translate(229.716 342.256)" fill="#d4a87f"/><path d="M1001.115,695.72l-29.527,3.894L999.8,720.206Z" transform="translate(276.452 344.784)" fill="#d4a87f"/><path d="M955.736,746.151h67.869L977.329,785.02Z" transform="translate(250.963 425.875)" fill="#d4a87f"/><path d="M980.044,800.765l162.548-22.2,41.339-22.83-18.514,31.707Z" transform="translate(290.049 441.291)" fill="#d4a87f"/><path d="M916.746,503.541l57.318,153.635-57.318-75.891Z" transform="translate(188.269 35.769)" fill="#d8d8d8"/><path d="M939.931,481.3l70.647,165.047L964.61,602.234Z" transform="translate(225.549 0.01)" fill="#d8d8d8"/><path d="M962.912,487.927,1063.4,661.611l-51.828-60.158Z" transform="translate(262.502 10.662)" fill="#d8d8d8"/><path d="M976.365,487.927l86.944,136.665-50.558-36.9Z" transform="translate(284.133 10.662)" fill="#d8d8d8"/><path d="M1090.677,721.929c-6.9,18.6-13.42,21.98-18.881,18.835V719.8l8.053-95.188.6.091s29.152,46.322,10.226,97.224" transform="translate(437.582 230.447)" fill="#d4a87f"/><path d="M1002.862,501.648l68.487,100.881-40.105-9.566Z" transform="translate(326.74 32.726)" fill="#d8d8d8"/><path d="M892.141,520.575l61.2,51.52,43.941,66.636-58.627-59.078-41.192-25.759Z" transform="translate(148.706 63.159)" fill="#d8d8d8"/><path d="M853.36,565.526l21.286,100.881-9.623,186.641L847.19,704.968Z" transform="translate(76.426 135.438)" fill="#d8d8d8"/><path d="M984.724,632.681l101.611-11.1,31.929,5.552Z" transform="translate(297.575 225.565)" fill="#d4a87f"/><path d="M877.246,627.346,875.7,686.852s-12.492,23.138-11.566,21.75,13.11-81.256,13.11-81.256" transform="translate(103.596 234.842)" fill="#d4a87f"/><path d="M858.677,624.435s-21.148,8.7-18.37,42.757,36.185,91.132,36.185,91.132L862.276,640.252Z" transform="translate(64.954 230.161)" fill="#d4a87f"/><path d="M963.119,707.124s3.244,3.145,15.687,2.373a56.66,56.66,0,0,0,20.559-4.94H958.79Z" transform="translate(255.874 358.995)" fill="#f3d1bb"/><path d="M927.881,773.232c62.7-3.7,100.341-11.1,100.341-11.1l-64.85,28.364h-82Z" transform="translate(131.391 451.563)" fill="#d4a87f"/><path d="M1047.807,578.6h44.552s-11.1,65.342-8.635,82.617,8.932,71.633,8.932,71.633Z" transform="translate(399.009 156.465)" fill="#d8d8d8"/><path d="M870.739,728.271s-8.833,72.944,5.977,80.351-15.6,13.522-15.6,13.522l-4.1-129.913Z" transform="translate(92.218 339.175)" fill="#d4a87f"/><path d="M972.915,777.163h105.45l-37.75,16.66s-116.4-20.3-107.351-20.8,39.651,4.136,39.651,4.136" transform="translate(214.021 469.03)" fill="#d4a87f"/><path d="M1111.888,691.68a61.99,61.99,0,1,1-61.988-61.989,61.988,61.988,0,0,1,61.988,61.989" transform="translate(302.696 238.612)" fill="#f2f2f2"/><path d="M1050.056,668.6a23.622,23.622,0,1,1-23.62-23.62,23.55,23.55,0,0,1,23.62,23.62" transform="translate(326.661 263.193)" fill="#7c3322"/><path d="M1042.338,662.456a20.706,20.706,0,0,1-37.669.2c5.445-3.127,12.544-7.386,12.544-7.386s7.665,4.7,9.861,2.958a6.754,6.754,0,0,0,2.512-3.182Z" transform="translate(329.645 279.376)" fill="#d1624b"/><path d="M1026.415,659.58a9,9,0,1,1-9-9,9,9,0,0,1,9,9" transform="translate(335.673 272.206)" fill="#461a00"/><path d="M1024.518,654.1a6.061,6.061,0,1,1-6.061-6.061,6.061,6.061,0,0,1,6.061,6.061" transform="translate(342.07 268.122)" fill="#fff"/><path d="M1015.751,653.195a3.187,3.187,0,1,1-3.187-3.187,3.186,3.186,0,0,1,3.187,3.187" transform="translate(337.216 271.281)" fill="#fff"/><path d="M1050.056,668.6a23.622,23.622,0,1,1-23.62-23.62A23.55,23.55,0,0,1,1050.056,668.6Z" transform="translate(326.661 263.193)" fill="none" stroke="#461a00" stroke-miterlimit="10" stroke-width="1.725"/><path d="M1015.184,691.68A61.99,61.99,0,1,1,953.2,629.691a61.988,61.988,0,0,1,61.988,61.989" transform="translate(147.2 238.612)" fill="#f2f2f2"/><path d="M953.351,668.6a23.622,23.622,0,1,1-23.62-23.62,23.551,23.551,0,0,1,23.62,23.62" transform="translate(171.164 263.193)" fill="#7c3322"/><path d="M945.633,662.456a20.706,20.706,0,0,1-37.669.2c5.446-3.127,12.544-7.386,12.544-7.386s7.665,4.7,9.861,2.958a6.752,6.752,0,0,0,2.512-3.182Z" transform="translate(174.148 279.376)" fill="#d1624b"/><path d="M929.711,659.58a9,9,0,1,1-9-9,9,9,0,0,1,9,9" transform="translate(180.178 272.206)" fill="#461a00"/><path d="M927.814,654.1a6.061,6.061,0,1,1-6.061-6.061,6.061,6.061,0,0,1,6.061,6.061" transform="translate(186.574 268.122)" fill="#fff"/><path d="M919.046,653.195a3.187,3.187,0,1,1-3.187-3.187,3.187,3.187,0,0,1,3.187,3.187" transform="translate(181.718 271.281)" fill="#fff"/><path d="M953.351,668.6a23.622,23.622,0,1,1-23.62-23.62A23.551,23.551,0,0,1,953.351,668.6Z" transform="translate(171.164 263.193)" fill="none" stroke="#461a00" stroke-miterlimit="10" stroke-width="1.725"/><path d="M979.785,684.2s65.321-9.331,97.316-3.333,79.986,8,79.986,8-46.659-70.655-62.656-69.322-101.981-1.333-110.645,19.33-4,45.326-4,45.326" transform="translate(287.617 222.269)" fill="#e3bb94"/><path d="M1049.991,686.758s-65.321-9.331-97.316-3.333-79.986,8-79.986,8,46.659-70.655,62.656-69.322,101.981-1.333,110.645,19.33,4,45.326,4,45.326" transform="translate(117.429 226.379)" fill="#e3bb94"/><path d="M1055.282,696.73c9.138,17.692,6.71,34.433-15.979,36.248-6.46.866-12.615-.563-17.966,2.571-2.537,1.826-3.753,4.183-6.572,6.856-5.751,5.539-14.213,6.236-21.753,4.238-4.624-1.244-8.575-5.5-11.055-8.637-2.673-3.315-5.607-4.118-9.783-4.426-3.21-.245-6.854-.222-10.784-.584-15.509-1.221-24.058-10.048-19.966-25.9a43.013,43.013,0,0,1,3.988-10.369,73.076,73.076,0,0,0-.243,10.727c.636,8.77,2.381,14.3,11.858,14.923,12.237.375,24.8-4.228,34.54,6.741,2.564,2.54,3.62,4.692,6.8,4.937.85.1,2.642.008,3.589.049,3.385-.143,4.543-2.3,7.182-4.981,4.431-5.263,12.38-7.949,19.1-7.425,7.1.07,13.047,1.789,19.588-.081,9.287-2.235,7.92-17.2,7.459-24.89" transform="translate(226.312 346.408)" fill="#c69873"/><path d="M1004.113,711.652l-25-2.373s-10.1,11.472-9.738,10.854,34.743-8.481,34.743-8.481" transform="translate(272.87 366.586)" fill="#a46d75"/><path d="M979.254,721.017l-9.4-11.115H944.715Z" transform="translate(233.241 367.588)" fill="#a46d75"/><path d="M971.984,665,940.4,626.782l22.853,53.852,8.726,39.565Z" transform="translate(226.311 233.935)" fill="#d4a87f"/><path d="M1031.949,641.243,902.6,630.139l-20.608,23.6Z" transform="translate(132.382 239.332)" fill="#d4a87f"/><path d="M983.647,640.732,1113,629.627l20.605,23.6Z" transform="translate(295.843 238.51)" fill="#d4a87f"/><path d="M981.136,633.105c44.831-12.948,94.992-16.112,140.18-3.583l8.9,2.629c-5.268-.811-13.056-2.345-18.3-2.66a223.14,223.14,0,0,0-54.806,1.44,279.11,279.11,0,0,0-61.185,16.034c-2.733,1.059-5.6,2.253-8,3.359Z" transform="translate(291.805 225.593)" fill="#461a00"/><path d="M1026.634,651.066c-40.131-17.186-85-25.339-128.588-20.415-3.088.5-10.567,1.734-13.7,2.243,5.156-1.474,12.724-3.969,17.922-4.942,36.78-8.4,75.532-6.716,112.327,1.043,6.439,1.408,12.39,2.832,18.832,4.854Z" transform="translate(136.173 226.84)" fill="#461a00"/><path d="M974.884,666.195l6.272-28.228,12.63,17.585L984.335,678.5Z" transform="translate(281.752 251.919)" fill="#d4a87f"/><path d="M946.937,741.767s53.492,10.5,61.988,9,3-7.5,3-7.5Z" transform="translate(236.815 418.826)" fill="#f3d1bb"/><path d="M1022.057,740.451s-2.193-5.748-7.456-4.749-46.917,2.749-53.935,1.75-30.693-5.748-30.693-5.748,12.912,6.747,27.065,9,64.581,5.25,64.581,5.25Z" transform="translate(209.537 402.645)" fill="#c17c61"/><path d="M964.644,739.053s7.589-6.124,12.711-5.125,40.228,3.124,47.06,2.125,24.025-.25,24.025-.25-6.4,5.751-26.043,5.5c-14.3-.183-54.222,3.25-54.222,3.25Z" transform="translate(265.287 406.043)" fill="#c17c61"/><path d="M922.624,727.71c14.127,11.1,30.951,15.04,48.258,17.21,19.6,2.712,39.333,5.458,58.958,7.519a38.059,38.059,0,0,0,5.79.193c8.384-.292,30.734-1.367,39.382-1.786q13.141-.673,26.346-1.528c8.241-.6,16.926-4.207,20.845-11.942-1.218,9.6-10.658,16.305-19.554,18.689-21.563,6.736-44.142,9.563-66.662,9.949a46.865,46.865,0,0,1-7.5-.386c-20.071-2.553-39.8-6.223-59.5-10.682-17.763-3.518-36.081-11.676-46.362-27.235" transform="translate(197.721 396.223)" fill="#cc886a"/><path d="M926.9,730.585c13.147,7.138,28.8,9.675,44.907,11.071,18.235,1.745,36.6,3.513,54.861,4.838a51.024,51.024,0,0,0,5.391.123c7.8-.185,28.6-.876,36.647-1.148q12.225-.43,24.518-.983c7.665-.389,15.75-2.707,19.4-7.683-1.134,6.178-9.921,10.492-18.2,12.022-20.065,4.335-41.078,6.152-62.033,6.4a62.953,62.953,0,0,1-6.979-.248c-18.675-1.643-37.035-4-55.369-6.875-16.527-2.261-33.575-7.511-43.141-17.52" transform="translate(204.604 400.845)" fill="#a46d75"/><path d="M970.227,722.553s.751,34.994.751,33.494,5.748-30.745,9.5-33.744,13.5-10.247,13.5-10.247Z" transform="translate(274.264 371.052)" fill="#d4a87f"/><path d="M980.89,797.079l6.752,8.212,1.867,9.123-8.619,6.058L973.024,831.1l18.308-10.628,15.835-15.181-7.931-13.541-11.595-7.456-11.767-3.317Z" transform="translate(278.762 481.875)" fill="#d4a87f"/><path d="M973.1,788.277l-8.718,14.114,2.326,5.263,6.392,10.453,2.345-16.78,4.011-8.39,3.231-9.232Z" transform="translate(264.858 486.261)" fill="#efccaf"/><path d="M1552.439,854.96l-68.573,228.65H898.447L820.36,854.96a72.84,72.84,0,0,1,72.853-72.819h199.631s19.539,46.2,108.029,46.2c88.525,0,114.771-46.2,114.771-46.2h163.978a72.83,72.83,0,0,1,72.817,72.819" transform="translate(33.285 483.745)" fill="#387195"/><path d="M1204.856,782.142c-8.418,17.486-42.465,69.669-147.824,69.669-109.879,0-138.211-46.161-145.535-69.669h34.8s19.539,46.195,108.03,46.195c88.524,0,114.771-46.195,114.771-46.195Z" transform="translate(179.83 483.747)" fill="#0f296f"/><path d="M873.366,860.387s3.161,8.212,55.174,7.3a796.66,796.66,0,0,0,80.456-5.6,11.264,11.264,0,0,1,12.62,11.206v27.248s9.034-23.724-59.357-23.724-88.892-16.425-88.892-16.425" transform="translate(118.516 609.561)" fill="#0f296f"/><path d="M866.2,782.142l19.163,69.669V782.142Z" transform="translate(106.994 483.747)" fill="#0f296f"/><path d="M1084.4,782.142l-4.676,50.759-13.569-50.759Z" transform="translate(428.508 483.747)" fill="#0f296f"/><path d="M874.522,860.387s-5.829,34.79,3.067,53.267S898.8,942.4,898.8,942.4,883.6,916.5,885.726,901.392s-11.2-41-11.2-41" transform="translate(117.36 609.561)" fill="#2f407e"/><path d="M1143.35,829.29,1193.3,962.355l-118.521,95.584,48.26-259.833Z" transform="translate(442.374 509.417)" fill="#387195"/><path d="M849.608,829.29,799.66,962.355l132.072,95.584L860.655,798.106Z" transform="translate(0.001 509.417)" fill="#387195"/><path d="M1126.8,934.425l-55.448-84.185,8.919,123.872Z" transform="translate(436.874 593.245)" fill="#0f296f"/><path d="M837.927,938.1,899.8,858.112l-29.6,103.34Z" transform="translate(61.532 605.904)" fill="#0f296f"/><rect width="3.42" height="23.879" transform="translate(1347.928 1275.059) rotate(-73.772)" fill="#387195"/><rect width="3.42" height="17.004" transform="matrix(0.62, -0.785, 0.785, 0.62, 1331.549, 1291.525)" fill="#387195"/><rect width="3.424" height="15.607" transform="matrix(0.745, -0.667, 0.667, 0.745, 1298.138, 1308.435)" fill="#387195"/><rect width="3.422" height="16.425" transform="translate(1250.487 1313.111)" fill="#387195"/><rect width="18.428" height="3.419" transform="translate(1178.192 1324.546) rotate(-58.7)" fill="#387195"/><rect width="16.357" height="3.423" transform="matrix(0.795, -0.607, 0.607, 0.795, 1136.865, 1305.938)" fill="#387195"/><rect width="18.217" height="3.42" transform="matrix(0.883, -0.469, 0.469, 0.883, 1117.25, 1291.408)" fill="#387195"/><rect width="23.713" height="3.422" transform="matrix(0.96, -0.281, 0.281, 0.96, 1102.86, 1278.448)" fill="#387195"/><rect width="10.934" height="3.425" transform="translate(1165.378 1316.967) rotate(-69.828)" fill="#387195"/><rect width="3.422" height="11.976" transform="translate(1222.055 1317.56)" fill="#387195"/><rect width="3.423" height="13.82" transform="translate(1274.877 1313.007) rotate(-19.8)" fill="#387195"/><rect width="3.422" height="16.502" transform="matrix(0.709, -0.705, 0.705, 0.709, 1312.915, 1301.931)" fill="#387195"/><rect width="3.419" height="20.158" transform="matrix(0.501, -0.866, 0.866, 0.501, 1343.044, 1281.571)" fill="#387195"/><rect width="3.422" height="22.241" transform="matrix(0.123, -0.992, 0.992, 0.123, 1352.414, 1270.326)" fill="#387195"/><path d="M1020.5,911.6s-5.818-17.108-27.717-18.136-96.161-4.775-108.207-15.742-11.2-17.338-11.2-17.338,26.515,14.443,62.541,15.52,49.246-7.993,62,.107,23.707,9.981,23.707,9.981Z" transform="translate(118.508 609.559)" fill="#313f53"/><rect width="3.422" height="11.407" transform="translate(1133.306 1497.209)" fill="#144f70"/><rect width="3.422" height="8.669" transform="translate(1113.006 1488.54)" fill="#144f70"/><rect width="3.422" height="8.669" transform="translate(1075.365 1488.54)" fill="#144f70"/><rect width="3.422" height="8.898" transform="translate(1032.704 1485.116)" fill="#144f70"/><rect width="3.422" height="9.694" transform="translate(1006.244 1479.871)" fill="#144f70"/><rect width="3.422" height="9.809" transform="translate(1019.018 1481.467)" fill="#144f70"/><rect width="3.422" height="9.579" transform="translate(1053.92 1488.54)" fill="#144f70"/><rect width="3.422" height="12.889" transform="translate(1094.526 1486.373)" fill="#144f70"/><rect width="3.422" height="9.582" transform="translate(1123.041 1493.331)" fill="#144f70"/><path d="M1050.2,862.661a69.563,69.563,0,0,0-10.4,45.738c3.424,26.351,6.7,44.828,6.7,44.828s-11.707-28.745-24.945-31.481S974.1,901.329,974.1,901.329s29.426,6.272,32.164,0,43.936-38.668,43.936-38.668" transform="translate(280.498 613.218)" fill="#254881"/><path d="M1084.105,891.867a34.1,34.1,0,1,1-34.106-34.1,34.108,34.108,0,0,1,34.106,34.1" transform="translate(347.699 605.342)" fill="#0f296f"/><path d="M1074.841,888.335a28.373,28.373,0,1,1-28.375-28.374,28.374,28.374,0,0,1,28.375,28.374" transform="translate(351.232 608.874)" fill="#fff"/><path d="M1018.982,876.095l17.843-8.291v3.943l-13.493,5.912v.073l13.493,5.91v3.941l-17.843-8.291Z" transform="translate(352.659 621.487)" fill="#0f296f"/><path d="M1027.283,891.429l7.957-26.953h3.753l-7.954,26.953Z" transform="translate(366.008 616.135)" fill="#0e176f"/><path d="M1050.033,879.407l-17.844,8.176v-3.938l13.793-5.912v-.073l-13.793-5.912V867.8l17.844,8.181Z" transform="translate(373.896 621.487)" fill="#0f296f"/><path d="M1032.351,876.573s3.471,2.819,1.716,6.238,0,5.7,0,5.7-6.658-.991-7.456-5.972,1.985-5.97,1.985-5.97l.842-2.858h3.756Z" transform="translate(364.695 630.992)" fill="#120d39"/><path d="M1023.984,782.142s14.3,10.779,39.625,10.865,70.349-10.865,70.349-10.865Z" transform="translate(360.703 483.747)" fill="#0f296f"/><path d="M1102.986,810.063s-5.031,3.148-2.292,13.071,18.738,30.742,18.738,30.742Z" transform="translate(482.737 528.642)" fill="#0f296f"/><path d="M827.461,821.653s-5.357,25.279,0,29.384,15.381,13.687,15.381,13.687-25.008-17.424-28.218-8.875l-8.246,21.972Z" transform="translate(10.802 547.279)" fill="#0f296f"/><g transform="translate(1257.333 873.54)" opacity="0.25"><g clip-path="url(#b)"><g clip-path="url(#c)"><path d="M1183.907,655.039v94.69a23.369,23.369,0,0,1-23.357,23.354H998.508a23.351,23.351,0,0,1-23.357-23.354v-94.69A23.346,23.346,0,0,1,998.508,631.7H1160.55a23.346,23.346,0,0,1,23.357,23.341" transform="translate(-975.151 -631.701)" fill="#f2f2f2"/></g></g></g><path d="M10.735,0H200.244a10.734,10.734,0,0,1,10.734,10.734V132.155a10.735,10.735,0,0,1-10.735,10.735H10.735A10.735,10.735,0,0,1,0,132.155V10.735A10.735,10.735,0,0,1,10.735,0Z" transform="translate(1256.224 872.78)" fill="none" stroke="#42210b" stroke-miterlimit="10" stroke-width="6.901"/><g transform="translate(1266.505 958.189)" opacity="0.25"><g clip-path="url(#d)"><g clip-path="url(#d)"><path d="M978.668,676.729c10.361-2.556,74.337-17.609,118.422-10.834,40.2,6.173,63.694,5.224,70.321,4.749v19.938a21.083,21.083,0,0,1-10.5,18.256c-11.47,1.312-34.832,2.227-59,2.861H999.782a21.118,21.118,0,0,1-18.9-11.7c-.861-3.888-1.617-8.332-2.217-12.27Z" transform="translate(-978.668 -664.156)" fill="#f2f2f2"/></g></g></g><path d="M985.174,641.207s-15.285-4.575-15.009,6.822-4.168,42.807,2.225,44.753,14.177-18.9,14.177-18.9Z" transform="translate(272.159 255.672)" fill="#42210b"/><g transform="translate(988.398 874.539)" opacity="0.25"><g clip-path="url(#c)"><g transform="translate(0 -0.003)"><g clip-path="url(#g)"><path d="M872.03,655.423v94.69a23.365,23.365,0,0,0,23.354,23.354H1057.43a23.344,23.344,0,0,0,23.354-23.354v-94.69a23.344,23.344,0,0,0-23.354-23.341H895.384a23.345,23.345,0,0,0-23.354,23.341" transform="translate(-872.03 -632.079)" fill="#f2f2f2"/></g></g></g></g><path d="M10.735,0H200.244a10.734,10.734,0,0,1,10.734,10.734V132.155a10.735,10.735,0,0,1-10.735,10.735H10.735A10.735,10.735,0,0,1,0,132.155V10.735A10.735,10.735,0,0,1,10.735,0Z" transform="translate(987.284 873.78)" fill="none" stroke="#42210b" stroke-miterlimit="10" stroke-width="6.901"/><g transform="translate(999.239 959.191)" opacity="0.25"><g clip-path="url(#d)"><g clip-path="url(#d)"><path d="M1064.93,688.117c-.6,3.936-1.356,8.379-2.217,12.27a21.117,21.117,0,0,1-18.9,11.694H945.694c-24.17-.634-47.533-1.549-59-2.861a21.08,21.08,0,0,1-10.5-18.253V671.03c6.627.472,30.117,1.424,70.321-4.752,44.085-6.775,108.06,8.278,118.422,10.836Z" transform="translate(-876.187 -664.541)" fill="#f2f2f2"/></g></g></g><path d="M952.935,641.591s15.285-4.574,15.009,6.822,4.168,42.807-2.224,44.753-14.177-18.9-14.177-18.9Z" transform="translate(244.219 256.289)" fill="#42210b"/><path d="M951.281,632.7s21.33,6,31.994,6,30.662-5.333,30.662-5.333l-8.405,19.072H963.351Z" transform="translate(243.8 243.446)" fill="#42210b"/></g></svg>