<svg xmlns="http://www.w3.org/2000/svg" width="19.704" height="15.326" viewBox="0 0 19.704 15.326"><path d="M2.189,35.284V34.189H4.378V45.134H3.284a1.095,1.095,0,0,0,0,2.189H7.662a1.095,1.095,0,0,0,0-2.189H6.567V34.189H8.756v1.095a1.095,1.095,0,1,0,2.189,0V33.642A1.642,1.642,0,0,0,9.3,32H1.642A1.642,1.642,0,0,0,0,33.642v1.642a1.095,1.095,0,1,0,2.189,0Zm15-2.962a1.1,1.1,0,0,0-1.549,0l-2.189,2.189a1.1,1.1,0,0,0,.776,1.871h1.095v6.564H14.229a1.1,1.1,0,0,0-.776,1.871l2.189,2.189a1.1,1.1,0,0,0,1.549,0l2.189-2.189a1.1,1.1,0,0,0-.776-1.871H17.513V36.378h1.095a1.1,1.1,0,0,0,.776-1.871l-2.189-2.189Z" transform="translate(0 -32)" fill="#0c254b"/></svg>