<svg xmlns="http://www.w3.org/2000/svg" width="43.373" height="41.55" viewBox="0 0 43.373 41.55"><g transform="translate(-148.313 -82.725)"><g transform="translate(-13.592 32.882)"><path d="M957.219,924.133v3.8a2.5,2.5,0,0,1-2.5,2.5h-1.339a.248.248,0,0,1-.175-.072l-1.946-1.945a.175.175,0,0,0-.018-.019c-.025-.027-.051-.053-.078-.078l-.019-.019-.274-.275-1.134-1.134-.266-.265-.135-.135-3.87-3.87a.245.245,0,0,1,0-.346l.083-.088a13.784,13.784,0,0,0-.112-19.111l-.283-.283a13.786,13.786,0,0,0-19.23,0,27.529,27.529,0,0,0-2.856,3.983,13.784,13.784,0,0,0,2.573,15.53c.026.026,1.482,1.352,2.148,1.8a4.19,4.19,0,0,1,1.834,3.463v2.675a2.308,2.308,0,0,1-3.294,2.083c-.218-.1-.433-.209-.648-.319a21.489,21.489,0,0,1-2.613-1.578q-.685-.481-1.33-1.014-.8-.662-1.534-1.4t-1.4-1.534q-.532-.644-1.014-1.33a21.571,21.571,0,0,1-3.855-10.5q-.086-.974-.087-1.971t.087-1.971a21.577,21.577,0,0,1,3.855-10.5q.481-.685,1.014-1.33.662-.8,1.4-1.534t1.534-1.4q.644-.532,1.33-1.014a21.559,21.559,0,0,1,10.5-3.855q.974-.087,1.971-.088t1.971.088a21.595,21.595,0,0,1,10.5,3.855q.685.481,1.329,1.014.8.662,1.535,1.4t1.4,1.534q.532.644,1.014,1.33a21.579,21.579,0,0,1,3.855,10.5c.057.65.088,1.307.088,1.971s-.031,1.322-.088,1.971a21.578,21.578,0,0,1-2.1,7.529.247.247,0,0,0,.221.358h.384a1.581,1.581,0,0,1,1.581,1.581" transform="translate(-751.941 -841.165)" fill="#0c254b"/><path d="M969.787,941.071a1.711,1.711,0,0,0-2.17-.108l0,0-.064.051-.007.005q-.469.371-.953.711a21.023,21.023,0,0,1-10.236,3.759c-.642.056-1.289.086-1.922.086s-1.281-.03-1.924-.086l-.038,0a3.758,3.758,0,0,1-3.411-3.774V918.358a3.222,3.222,0,0,1,3.17-3.24,3.612,3.612,0,0,1,3.633,3.609v17.266a2.221,2.221,0,0,0,1.822,2.207,2.193,2.193,0,0,0,1.016-.071,14.083,14.083,0,0,0,1.881-.736,14.286,14.286,0,0,0,3.6-2.443l.008.008-.084.087a.25.25,0,0,0-.069.172.247.247,0,0,0,.072.175l3.87,3.87.134.135.266.266,1.134,1.134Z" transform="translate(-770.337 -854.185)" fill="#45cb53"/></g></g></svg>