<svg xmlns="http://www.w3.org/2000/svg" width="58.122" height="50.838" viewBox="0 0 58.122 50.838"><path d="M19.083,72.037a5.422,5.422,0,0,0-5.06.726,27.45,27.45,0,0,1-4.47,2.575,20.093,20.093,0,0,0,1.282-5.6A5.509,5.509,0,0,0,9.5,65.707,15.167,15.167,0,0,1,5.446,55.6c0-9.019,9.451-18.152,23.6-18.152s23.6,9.133,23.6,18.152-9.451,18.152-23.6,18.152A29.265,29.265,0,0,1,19.083,72.037Zm-16.1,4.413q-.272.459-.579.919l-.034.057-.545.783A16.656,16.656,0,0,1,.545,79.741a1.8,1.8,0,0,0-.386,1.974,1.816,1.816,0,0,0,1.679,1.123c.579,0,1.157-.034,1.736-.091l.079-.011c.5-.057,1-.125,1.5-.216a2.324,2.324,0,0,0,.272-.057,28.017,28.017,0,0,0,5.684-1.827,34,34,0,0,0,6.16-3.472A34.737,34.737,0,0,0,29.078,79.2c16.042,0,29.044-10.562,29.044-23.6S45.086,32,29.044,32,0,42.562,0,55.6A20.677,20.677,0,0,0,5.412,69.315a16.515,16.515,0,0,1-2.428,7.136ZM16.337,59.229a3.63,3.63,0,1,0-3.63-3.63A3.63,3.63,0,0,0,16.337,59.229ZM32.674,55.6a3.63,3.63,0,1,0-3.63,3.63A3.63,3.63,0,0,0,32.674,55.6Zm9.076,3.63a3.63,3.63,0,1,0-3.63-3.63A3.63,3.63,0,0,0,41.751,59.229Z" transform="translate(0 -32)" fill="#e9e9e9"/></svg>