<svg xmlns="http://www.w3.org/2000/svg" width="37.817" height="40.115" viewBox="0 0 37.817 40.115"><path d="M52.375,13.056a1.775,1.775,0,0,1-.5,1.928L48.48,18.071a14.936,14.936,0,0,1,0,3.981l3.393,3.088a1.775,1.775,0,0,1,.5,1.928,19.426,19.426,0,0,1-1.238,2.688l-.368.635a19.941,19.941,0,0,1-1.732,2.445,1.775,1.775,0,0,1-1.92.533l-4.365-1.387a15.08,15.08,0,0,1-3.448,1.99l-.98,4.475A1.771,1.771,0,0,1,36.9,39.841a20.358,20.358,0,0,1-6.661,0,1.771,1.771,0,0,1-1.426-1.395l-.98-4.475a15.08,15.08,0,0,1-3.448-1.99l-4.357,1.395a1.789,1.789,0,0,1-1.92-.533A19.941,19.941,0,0,1,16.374,30.4l-.368-.635a19.425,19.425,0,0,1-1.238-2.688,1.775,1.775,0,0,1,.5-1.928l3.393-3.088a15.375,15.375,0,0,1-.133-2,15.163,15.163,0,0,1,.133-1.99l-3.393-3.088a1.775,1.775,0,0,1-.5-1.928,19.425,19.425,0,0,1,1.238-2.688l.368-.635a19.941,19.941,0,0,1,1.732-2.445,1.775,1.775,0,0,1,1.92-.533L24.39,8.142a15.08,15.08,0,0,1,3.448-1.99l.98-4.475A1.771,1.771,0,0,1,30.244.282,19.427,19.427,0,0,1,33.575,0a20.25,20.25,0,0,1,3.331.274,1.771,1.771,0,0,1,1.426,1.395l.98,4.475a15.08,15.08,0,0,1,3.448,1.99l4.365-1.387a1.789,1.789,0,0,1,1.92.533,19.939,19.939,0,0,1,1.732,2.445l.368.635a19.424,19.424,0,0,1,1.238,2.688Zm-18.8,13.275a6.269,6.269,0,1,0-6.269-6.269A6.269,6.269,0,0,0,33.575,26.331Z" transform="translate(-14.662)" fill="#e9e9e9"/></svg>