<svg xmlns="http://www.w3.org/2000/svg" width="25.39" height="32.026" viewBox="0 0 25.39 32.026"><path d="M24,76.822c-1.447-1.323-1.869-4.1-1.266-6.115a5.946,5.946,0,0,0,3.993,1.9,11.112,11.112,0,0,0,6.741-.839c.246-.121.474-.282.742-.446A3.961,3.961,0,0,1,34.4,73.1a4.869,4.869,0,0,1-2.061,3.456c-.464.343-.955.65-1.434.974a2.986,2.986,0,0,0-1.317,3.858c.013.042.025.083.055.184a3.87,3.87,0,0,1-1.718-1.47,4.132,4.132,0,0,1-.663-2.244,9.809,9.809,0,0,0-.059-1.185c-.13-.951-.577-1.377-1.418-1.4a1.659,1.659,0,0,0-1.727,1.349c-.014.064-.034.128-.054.2Z" transform="translate(-15.745 -49.544)" fill="#fff"/><path d="M24,76.822c-1.447-1.323-1.869-4.1-1.266-6.115a5.946,5.946,0,0,0,3.993,1.9,11.112,11.112,0,0,0,6.741-.839c.246-.121.474-.282.742-.446A3.961,3.961,0,0,1,34.4,73.1a4.869,4.869,0,0,1-2.061,3.456c-.464.343-.955.65-1.434.974a2.986,2.986,0,0,0-1.317,3.858c.013.042.025.083.055.184a3.87,3.87,0,0,1-1.718-1.47,4.132,4.132,0,0,1-.663-2.244,9.809,9.809,0,0,0-.059-1.185c-.13-.951-.577-1.377-1.418-1.4a1.659,1.659,0,0,0-1.727,1.349c-.014.064-.034.128-.054.2Z" transform="translate(-15.745 -49.544)" fill="#fff"/><path d="M0,20.828a22.627,22.627,0,0,1,8.581-2.087L11.82,8.716a.972.972,0,0,1,.875-.814.972.972,0,0,1,.875.814l3.239,10.025a18.125,18.125,0,0,1,8.581,2.087S18.113,1,18.1.964C17.89.377,17.537,0,17.062,0H8.329c-.475,0-.814.377-1.037.964C7.277,1,0,20.828,0,20.828Z" transform="translate(0 0)" fill="#fff"/></svg>