<svg xmlns="http://www.w3.org/2000/svg" width="33.051" height="32.225" viewBox="0 0 33.051 32.225"><path d="M5.853,0H27.2a5.848,5.848,0,0,1,5.853,5.853V26.372A5.848,5.848,0,0,1,27.2,32.225H5.853A5.848,5.848,0,0,1,0,26.372V5.853A5.848,5.848,0,0,1,5.853,0Z" transform="translate(0)" fill="#e9e9e9"/><path d="M60.974,67.33H54.459l-1.331,4.116a.307.307,0,0,1-.333.245H49.5c-.193,0-.245-.105-.193-.315l5.64-16.236c.053-.175.105-.368.175-.578a6.118,6.118,0,0,0,.105-1.138.174.174,0,0,1,.14-.193h4.536c.14,0,.21.053.228.14l6.393,18.04c.053.193,0,.28-.175.28h-3.66a.264.264,0,0,1-.28-.193Zm-5.5-3.555h4.449c-.105-.368-.245-.806-.4-1.261-.158-.473-.315-.981-.473-1.506-.175-.543-.333-1.068-.508-1.611s-.333-1.051-.473-1.559c-.14-.49-.263-.946-.385-1.366h-.035a21.5,21.5,0,0,1-.6,2.259c-.263.841-.525,1.716-.806,2.592C56,62.216,55.737,63.039,55.475,63.775ZM70.432,56.3a2.168,2.168,0,0,1-1.559-.613,2.275,2.275,0,0,1-.6-1.611,2.061,2.061,0,0,1,.631-1.559,2.243,2.243,0,0,1,1.559-.613,2.1,2.1,0,0,1,1.594.613,2.408,2.408,0,0,1-.035,3.17,2.059,2.059,0,0,1-1.594.613ZM68.47,71.5V58.013c0-.175.07-.245.228-.245h3.468c.158,0,.228.088.228.245V71.5c0,.193-.07.28-.228.28H68.733A.245.245,0,0,1,68.47,71.5Z" transform="translate(-44.808 -46.582)" fill="#0c254b"/></svg>