<svg xmlns="http://www.w3.org/2000/svg" width="33.051" height="32.225" viewBox="0 0 33.051 32.225"><g transform="translate(0)"><path d="M5.853,0H27.2a5.848,5.848,0,0,1,5.853,5.853V26.372A5.848,5.848,0,0,1,27.2,32.225H5.853A5.848,5.848,0,0,1,0,26.372V5.853A5.848,5.848,0,0,1,5.853,0Z" fill="#e9e9e9"/></g><g transform="translate(5.388 6.914)"><path d="M54,76.531V59.777c0-.114.049-.179.163-.179.277,0,.537,0,.912-.016.391-.016.8-.016,1.237-.033s.912-.016,1.417-.033.993-.016,1.482-.016a9.573,9.573,0,0,1,3.354.5,5.814,5.814,0,0,1,2.182,1.335A5.184,5.184,0,0,1,65.935,63.2a6.232,6.232,0,0,1,.374,2.117,5.821,5.821,0,0,1-.977,3.468,5.578,5.578,0,0,1-2.621,1.986,10.552,10.552,0,0,1-3.663.554c-.391,0-.651,0-.814-.016s-.391-.016-.7-.016v5.227a.2.2,0,0,1-.179.228H54.2C54.065,76.743,54,76.677,54,76.531ZM57.549,62.74v5.471c.228.016.44.033.635.033h.863a6.082,6.082,0,0,0,1.872-.293,2.8,2.8,0,0,0,1.335-.863,2.516,2.516,0,0,0,.5-1.677,2.68,2.68,0,0,0-.374-1.449,2.361,2.361,0,0,0-1.14-.928,4.778,4.778,0,0,0-1.921-.326c-.423,0-.8,0-1.107.016a3.73,3.73,0,0,0-.668.016Z" transform="translate(-54 -59.5)" fill="#0c254b"/><path d="M148.707,87.98a5.763,5.763,0,0,0-1.563-.554,8.583,8.583,0,0,0-1.824-.212,3.278,3.278,0,0,0-.977.114.836.836,0,0,0-.5.326.863.863,0,0,0-.13.44.724.724,0,0,0,.163.423,1.837,1.837,0,0,0,.554.44c.374.2.765.374,1.156.537a11.793,11.793,0,0,1,2.507,1.189,3.788,3.788,0,0,1,1.286,1.351,3.515,3.515,0,0,1,.374,1.677,3.788,3.788,0,0,1-.635,2.166,4.08,4.08,0,0,1-1.824,1.449,7.46,7.46,0,0,1-2.947.521,11.215,11.215,0,0,1-2.214-.212,6.568,6.568,0,0,1-1.661-.521.32.32,0,0,1-.179-.309V93.972a.177.177,0,0,1,.065-.147.124.124,0,0,1,.147.016,6.97,6.97,0,0,0,2.019.8,7.579,7.579,0,0,0,1.921.244,3.108,3.108,0,0,0,1.351-.228.756.756,0,0,0,.44-.684.863.863,0,0,0-.391-.651,6.906,6.906,0,0,0-1.6-.765,9.961,9.961,0,0,1-2.312-1.172A4.216,4.216,0,0,1,140.7,90a3.494,3.494,0,0,1-.374-1.661,3.829,3.829,0,0,1,.554-1.97,4.013,4.013,0,0,1,1.71-1.5,6.314,6.314,0,0,1,2.882-.57,14.036,14.036,0,0,1,2.019.147,5.729,5.729,0,0,1,1.4.374.286.286,0,0,1,.163.147.817.817,0,0,1,.033.2v2.654a.2.2,0,0,1-.081.163A.434.434,0,0,1,148.707,87.98Z" transform="translate(-126.238 -80.262)" fill="#0c254b"/></g></svg>