<svg xmlns="http://www.w3.org/2000/svg" width="80.709" height="22.419" viewBox="0 0 80.709 22.419"><path d="M-35.326,312.466a18.169,18.169,0,0,1-3.086-.4v-1.718a18.239,18.239,0,0,0,3.062.361c1.2,0,1.978-1.021,1.978-2.834,0-2.144-.353-3.274-2.025-3.274h-1.932V302.88h1.7c1.908,0,2-1.955,2-2.9,0-1.861-.589-2.615-1.766-2.615a15.063,15.063,0,0,0-2.9.4V296.05a14.655,14.655,0,0,1,2.85-.4c2.426,0,3.816,1.036,3.816,4.546,0,1.6-.566,3.014-1.814,3.462,1.436.094,2.1,1.672,2.1,3.98,0,3.509-1.365,4.828-3.98,4.828m-10.834-15.1c-2.119,0-2.826,1.437-2.826,6.619,0,5.064.707,6.76,2.826,6.76s2.826-1.7,2.826-6.76c0-5.181-.707-6.619-2.826-6.619m0,15.1c-3.886,0-4.923-2.826-4.923-8.6,0-5.535,1.037-8.22,4.923-8.22s4.922,2.685,4.922,8.22c0,5.77-1.036,8.6-4.922,8.6m-11.73-15.121a16.125,16.125,0,0,0-2.214.141v6.877h2.214c1.319,0,2.238-.872,2.238-3.439,0-2.356-.565-3.58-2.238-3.58m-.236,8.738H-60.1V312.3h-2.049V295.814s2.026-.165,3.98-.165c3.58,0,4.617,2.214,4.617,5.111,0,3.581-1.225,5.323-4.57,5.323m-10.646-1.437V312.3h-2.12v-7.654l-4.216-8.833h2.261l3.109,6.665,3.109-6.665h2.143l-4.286,8.833ZM-79.764,297.6v14.7h-2.049V297.6H-85.44v-1.791h9.3V297.6h-3.627Z" transform="translate(112.056 -290.048)" fill="#fff"/><path d="M-188.748,287.057a3.078,3.078,0,0,1-.945.132c-2.847,0-7.028-9.948-7.028-13.259,0-1.22.29-1.626.7-1.975-3.485.406-7.666,1.684-9,3.311a3.241,3.241,0,0,0-.464,1.858c0,5.17,5.518,16.9,9.409,16.9,1.8,0,4.837-2.962,7.334-6.969" transform="translate(205.491 -271.607)" fill="#fff"/><path d="M-145.5,270.383c3.6,0,7.2.581,7.2,2.614,0,4.124-2.614,9.119-3.95,9.119-2.381,0-5.343-6.621-5.343-9.932,0-1.51.581-1.8,2.09-1.8" transform="translate(160.43 -270.383)" fill="#fff"/></svg>