<svg xmlns="http://www.w3.org/2000/svg" width="26.195" height="26.194" viewBox="0 0 26.195 26.194"><path d="M8.708,44.445A11.238,11.238,0,0,0,15.04,54.556L9.681,39.872A11.193,11.193,0,0,0,8.708,44.445Z" transform="translate(-6.846 -31.348)" fill="#fff"/><path d="M34.324,19.376a5.916,5.916,0,0,0-.927-3.1,5.259,5.259,0,0,1-1.1-2.635,1.946,1.946,0,0,1,1.887-1.994c.05,0,.1.006.146.009a11.233,11.233,0,0,0-16.975,2.115c.264.008.512.013.723.013,1.175,0,2.994-.143,2.994-.143a.464.464,0,0,1,.072.926s-.609.072-1.286.107l4.092,12.17,2.459-7.374-1.751-4.8c-.605-.035-1.178-.107-1.178-.107a.464.464,0,0,1,.071-.926s1.855.143,2.96.143c1.175,0,2.994-.143,2.994-.143a.464.464,0,0,1,.072.926s-.61.072-1.286.107l4.06,12.078,1.121-3.745A13.573,13.573,0,0,0,34.324,19.376Z" transform="translate(-13.642 -6.846)" fill="#fff"/><path d="M49.787,65.857l-3.371,9.8a11.241,11.241,0,0,0,6.905-.179.986.986,0,0,1-.08-.155Z" transform="translate(-36.493 -51.777)" fill="#fff"/><path d="M91.892,36.046a8.622,8.622,0,0,1,.076,1.155,10.6,10.6,0,0,1-.854,4.024l-3.432,9.923a11.237,11.237,0,0,0,4.211-15.1Z" transform="translate(-68.936 -28.34)" fill="#fff"/><path d="M13.1,0A13.1,13.1,0,1,0,26.2,13.1,13.112,13.112,0,0,0,13.1,0Zm0,25.594a12.5,12.5,0,1,1,12.5-12.5,12.511,12.511,0,0,1-12.5,12.5Z" transform="translate(0 0)" fill="#fff"/></svg>