<svg xmlns="http://www.w3.org/2000/svg" width="33.051" height="32.225" viewBox="0 0 33.051 32.225"><g transform="translate(0)"><path d="M5.853,0H27.2a5.848,5.848,0,0,1,5.853,5.853V26.372A5.848,5.848,0,0,1,27.2,32.225H5.853A5.848,5.848,0,0,1,0,26.372V5.853A5.848,5.848,0,0,1,5.853,0Z" fill="#e9e9e9"/></g><g transform="translate(4.87 6.982)"><path d="M47.671,60.209l-4.179,6.9,4.458,7.314a.24.24,0,0,1,.028.167c-.014.056-.07.014-.153.028h-3.19c-.223,0-.376-.014-.474-.153-.293-.585-.6-1.156-.892-1.741s-.613-1.156-.947-1.755-.669-1.2-1-1.811h-.028c-.293.6-.613,1.2-.933,1.8s-.641,1.2-.947,1.783-.641,1.184-.961,1.755c-.056.139-.167.153-.32.153H35.064c-.056,0-.1.028-.1-.042a.193.193,0,0,1,.028-.153l4.333-7.1L35.106,60.2c-.042-.056-.056-.111-.028-.139A.162.162,0,0,1,35.217,60h3.162a.822.822,0,0,1,.2.028.4.4,0,0,1,.139.125c.265.6.571,1.2.892,1.8s.655,1.184,1,1.769.641,1.17.933,1.769h.028c.293-.613.6-1.212.906-1.8s.627-1.17.947-1.755.627-1.184.933-1.755a.237.237,0,0,1,.084-.139.266.266,0,0,1,.181-.028H47.56a.128.128,0,0,1,.153.1c.014.014-.014.07-.042.1Z" transform="translate(-34.961 -58.786)" fill="#0c254b"/><path d="M136.162,67.4a6.926,6.926,0,0,1-3-.627,4.857,4.857,0,0,1-2.1-1.895,6.028,6.028,0,0,1-.766-3.176,5.721,5.721,0,0,1,.766-2.939,5.785,5.785,0,0,1,2.215-2.159A7.126,7.126,0,0,1,136.8,55.8a2.488,2.488,0,0,1,.293.014c.125.014.265.014.432.028v-4.4c0-.1.042-.153.139-.153h2.828a.125.125,0,0,1,.139.1v13.29c0,.251.014.529.028.836s.042.571.056.808a.226.226,0,0,1-.139.223,10.64,10.64,0,0,1-2.271.669A12.288,12.288,0,0,1,136.162,67.4Zm1.365-2.786v-6.13a3.562,3.562,0,0,0-.376-.07c-.153-.014-.306-.028-.46-.028a3.434,3.434,0,0,0-1.574.362,3.123,3.123,0,0,0-1.184,1.031,3.088,3.088,0,0,0-.46,1.769,3.881,3.881,0,0,0,.237,1.435,2.723,2.723,0,0,0,.627.989,2.407,2.407,0,0,0,.947.557,3.647,3.647,0,0,0,1.156.181c.209,0,.4-.014.585-.028A1.219,1.219,0,0,0,137.527,64.619Z" transform="translate(-117.398 -51.284)" fill="#0c254b"/></g></svg>